<?xml version="1.0" encoding="UTF-8" standalone="no"?>
<svg
   version="1.0"
   width="858.14166pt"
   height="193pt"
   viewBox="0 0 858.14166 193"
   preserveAspectRatio="xMidYMid"
   id="svg12"
   sodipodi:docname="logo-grey1.svg"
   inkscape:version="1.4.2 (ebf0e940, 2025-05-08)"
   xmlns:inkscape="http://www.inkscape.org/namespaces/inkscape"
   xmlns:sodipodi="http://sodipodi.sourceforge.net/DTD/sodipodi-0.dtd"
   xmlns="http://www.w3.org/2000/svg"
   xmlns:svg="http://www.w3.org/2000/svg">
  <defs
     id="defs12" />
  <sodipodi:namedview
     id="namedview12"
     pagecolor="#ffffff"
     bordercolor="#000000"
     borderopacity="0.25"
     inkscape:showpageshadow="2"
     inkscape:pageopacity="0.0"
     inkscape:pagecheckerboard="0"
     inkscape:deskcolor="#d1d1d1"
     inkscape:document-units="pt"
     inkscape:zoom="0.44827547"
     inkscape:cx="306.73104"
     inkscape:cy="-303.38488"
     inkscape:window-width="1512"
     inkscape:window-height="949"
     inkscape:window-x="0"
     inkscape:window-y="33"
     inkscape:window-maximized="0"
     inkscape:current-layer="g12" />
  <g
     transform="matrix(0.1,0,0,-0.1,-48.958367,282)"
     fill="#000000"
     stroke="none"
     id="g12"
     style="fill:#000000">
    <path
       d="m 559,2797 c -67,-45 -69,-55 -69,-408 0,-450 -31,-421 442,-417 l 327,3 30,29 c 16,15 35,40 41,55 7,19 10,130 8,353 l -3,326 -25,27 c -48,53 -64,55 -403,55 -310,0 -314,0 -348,-23 z m 408,-128 c 7,-14 13,-63 13,-116 v -93 h 98 c 115,0 142,-12 142,-64 0,-51 -20,-60 -134,-66 l -101,-5 -3,-100 c -3,-109 -15,-135 -61,-135 -50,0 -56,11 -61,127 l -5,108 -106,5 c -119,6 -139,15 -139,65 0,50 20,59 134,65 l 101,5 3,99 c 2,58 8,106 15,114 30,37 83,32 104,-9 z"
       id="path1"
       style="fill:#d97757;fill-opacity:1" />
    <path
       d="m 1650,2802 c -19,-9 -43,-33 -55,-52 -19,-33 -20,-51 -20,-362 0,-451 -34,-418 429,-418 450,0 416,-35 416,430 0,364 0,364 -75,400 -38,19 -63,20 -351,20 -274,0 -313,-2 -344,-18 z m 640,-364 c 26,-28 26,-60 -1,-84 -20,-18 -40,-19 -296,-19 -260,0 -275,1 -289,19 -21,30 -18,72 8,90 19,14 64,16 290,16 262,0 268,0 288,-22 z"
       id="path2"
       style="fill:#d97757;fill-opacity:1" />
    <path
       d="m 3882,2023 3,-588 123,-3 122,-3 v 591 590 h -125 -125 z"
       id="path3"
       style="fill:#ffffff;fill-opacity:1" />
    <path
       d="m 7980,2020 v -590 h 125 125 v 590 590 h -125 -125 z"
       id="path4"
       style="fill:#ffffff;fill-opacity:1" />
    <path
       d="m 3195,2266 c -107,-27 -208,-103 -259,-195 -50,-93 -56,-150 -56,-578 v -393 h 125 125 v 205 c 0,113 2,205 5,205 3,0 23,-13 45,-29 55,-39 115,-54 207,-49 258,12 437,276 368,542 -49,186 -223,307 -440,305 -38,0 -92,-6 -120,-13 z m 251,-251 c 93,-71 100,-251 12,-314 -61,-44 -177,-55 -238,-22 -95,50 -119,240 -41,315 66,63 198,73 267,21 z"
       id="path5"
       style="fill:#ffffff;fill-opacity:1" />
    <path
       d="m 5028,2272 -116,-3 -4,-242 c -3,-221 -5,-246 -24,-282 -30,-58 -90,-87 -171,-83 -73,5 -106,25 -137,84 -19,36 -21,59 -24,282 l -3,242 h -125 -124 v -229 c 0,-125 5,-252 10,-281 30,-158 142,-276 302,-320 29,-8 84,-11 145,-8 83,3 108,8 163,34 105,50 178,135 217,253 17,52 32,537 17,549 -5,4 -61,6 -126,4 z"
       id="path6"
       style="fill:#ffffff;fill-opacity:1" />
    <path
       d="m 5525,2267 c -147,-39 -225,-127 -225,-256 0,-72 9,-98 51,-146 47,-54 107,-79 268,-114 80,-17 151,-37 158,-43 21,-17 15,-37 -14,-45 -64,-18 -356,-3 -450,23 -23,6 -23,6 -23,-110 0,-64 2,-116 4,-116 2,0 27,-5 57,-10 30,-6 107,-15 171,-21 209,-18 353,15 438,100 51,51 70,100 70,180 0,139 -79,199 -332,252 -172,36 -201,53 -137,79 48,20 320,3 412,-26 16,-5 17,3 15,113 l -3,118 -65,13 c -99,19 -335,24 -395,9 z"
       id="path7"
       style="fill:#ffffff;fill-opacity:1" />
    <path
       d="m 6445,2274 c -159,-39 -272,-142 -317,-287 -16,-54 -20,-87 -16,-161 3,-84 8,-102 41,-169 54,-110 134,-175 261,-215 63,-20 266,-20 346,0 l 55,13 3,129 c 2,120 1,128 -15,121 -92,-38 -233,-54 -310,-36 -91,22 -139,100 -131,210 8,109 66,153 208,159 77,3 138,-6 228,-33 l 23,-7 -3,123 -3,123 -50,14 c -50,13 -282,25 -320,16 z"
       id="path8"
       style="fill:#ffffff;fill-opacity:1" />
    <path
       d="m 7245,2266 c -193,-48 -315,-207 -315,-411 0,-97 29,-188 83,-262 79,-107 190,-162 325,-163 112,0 173,27 228,102 16,21 25,27 28,17 2,-8 10,-32 17,-54 19,-65 20,-65 150,-65 66,0 119,2 119,5 0,3 -11,44 -26,92 -19,68 -27,126 -34,253 -11,183 -23,234 -73,312 -41,64 -81,100 -156,137 -99,50 -235,64 -346,37 z m 244,-243 c 71,-52 100,-209 52,-286 -64,-105 -273,-104 -334,1 -24,41 -34,146 -18,194 14,44 57,85 107,104 53,19 158,12 193,-13 z"
       id="path9"
       style="fill:#ffffff;fill-opacity:1" />
    <path
       d="m 8675,2267 c -211,-54 -339,-255 -307,-483 23,-169 134,-296 299,-342 71,-20 263,-20 343,0 l 55,13 3,127 3,126 -63,-20 c -91,-30 -259,-31 -308,-2 -67,39 -99,118 -85,210 8,54 45,100 100,125 68,31 236,23 338,-16 16,-7 17,1 15,116 l -3,123 -45,14 c -64,19 -283,25 -345,9 z"
       id="path10"
       style="fill:#ffffff;fill-opacity:1" />
    <path
       d="m 587,1730 c -40,-12 -57,-29 -78,-75 -17,-36 -19,-72 -19,-350 0,-292 1,-312 20,-343 11,-18 34,-41 52,-52 31,-19 51,-20 356,-20 363,0 367,1 402,70 19,37 20,58 20,357 0,356 0,358 -73,401 -34,19 -49,20 -344,21 -169,0 -321,-4 -336,-9 z m 248,-250 c 38,-38 74,-70 80,-70 6,0 42,32 80,70 77,77 111,89 139,48 27,-38 19,-61 -45,-123 -92,-91 -92,-85 -10,-170 74,-76 85,-103 54,-137 -33,-37 -69,-24 -149,54 l -75,72 -72,-72 c -76,-76 -104,-87 -139,-55 -34,31 -23,62 53,140 l 71,73 -71,75 c -75,80 -87,111 -54,147 31,35 64,23 138,-52 z"
       id="path11"
       style="fill:#d97757;fill-opacity:1" />
    <path
       d="m 1655,1721 c -23,-10 -49,-33 -60,-52 -19,-32 -20,-52 -20,-359 0,-362 -1,-359 68,-400 30,-19 52,-20 357,-20 305,0 327,1 357,20 62,37 63,44 63,409 v 330 l -31,35 c -17,20 -47,40 -67,46 -21,6 -162,10 -332,10 -265,0 -299,-2 -335,-19 z m 639,-203 c 21,-29 20,-57 -1,-80 -15,-17 -37,-18 -291,-18 -303,0 -312,2 -312,61 0,56 16,59 317,59 270,0 272,0 287,-22 z m -4,-330 c 20,-22 26,-54 12,-74 -20,-30 -55,-34 -311,-34 -250,0 -262,1 -282,21 -28,28 -23,79 11,96 18,9 97,13 287,13 257,0 263,0 283,-22 z"
       id="path12"
       style="fill:#d97757;fill-opacity:1" />
  </g>
</svg>
