<?xml version="1.0" encoding="UTF-8" standalone="no"?>
<svg
   version="1.0"
   width="193.10022pt"
   height="193pt"
   viewBox="0 0 193.10022 193"
   preserveAspectRatio="xMidYMid"
   id="svg12"
   sodipodi:docname="logo-icon.svg"
   inkscape:version="1.4.2 (ebf0e940, 2025-05-08)"
   xmlns:inkscape="http://www.inkscape.org/namespaces/inkscape"
   xmlns:sodipodi="http://sodipodi.sourceforge.net/DTD/sodipodi-0.dtd"
   xmlns="http://www.w3.org/2000/svg"
   xmlns:svg="http://www.w3.org/2000/svg">
  <defs
     id="defs12" />
  <sodipodi:namedview
     id="namedview12"
     pagecolor="#ffffff"
     bordercolor="#000000"
     borderopacity="0.25"
     inkscape:showpageshadow="2"
     inkscape:pageopacity="0.0"
     inkscape:pagecheckerboard="0"
     inkscape:deskcolor="#d1d1d1"
     inkscape:document-units="pt"
     inkscape:zoom="0.44827547"
     inkscape:cx="306.73104"
     inkscape:cy="-303.38488"
     inkscape:window-width="1512"
     inkscape:window-height="949"
     inkscape:window-x="0"
     inkscape:window-y="33"
     inkscape:window-maximized="0"
     inkscape:current-layer="svg12" />
  <g
     transform="matrix(0.1,0,0,-0.1,-48.958367,282)"
     fill="#000000"
     stroke="none"
     id="g12"
     style="fill:#000000">
    <path
       d="m 559,2797 c -67,-45 -69,-55 -69,-408 0,-450 -31,-421 442,-417 l 327,3 30,29 c 16,15 35,40 41,55 7,19 10,130 8,353 l -3,326 -25,27 c -48,53 -64,55 -403,55 -310,0 -314,0 -348,-23 z m 408,-128 c 7,-14 13,-63 13,-116 v -93 h 98 c 115,0 142,-12 142,-64 0,-51 -20,-60 -134,-66 l -101,-5 -3,-100 c -3,-109 -15,-135 -61,-135 -50,0 -56,11 -61,127 l -5,108 -106,5 c -119,6 -139,15 -139,65 0,50 20,59 134,65 l 101,5 3,99 c 2,58 8,106 15,114 30,37 83,32 104,-9 z"
       id="path1"
       style="fill:#d97757;fill-opacity:1" />
    <path
       d="m 1650,2802 c -19,-9 -43,-33 -55,-52 -19,-33 -20,-51 -20,-362 0,-451 -34,-418 429,-418 450,0 416,-35 416,430 0,364 0,364 -75,400 -38,19 -63,20 -351,20 -274,0 -313,-2 -344,-18 z m 640,-364 c 26,-28 26,-60 -1,-84 -20,-18 -40,-19 -296,-19 -260,0 -275,1 -289,19 -21,30 -18,72 8,90 19,14 64,16 290,16 262,0 268,0 288,-22 z"
       id="path2"
       style="fill:#d97757;fill-opacity:1" />
    <path
       d="m 587,1730 c -40,-12 -57,-29 -78,-75 -17,-36 -19,-72 -19,-350 0,-292 1,-312 20,-343 11,-18 34,-41 52,-52 31,-19 51,-20 356,-20 363,0 367,1 402,70 19,37 20,58 20,357 0,356 0,358 -73,401 -34,19 -49,20 -344,21 -169,0 -321,-4 -336,-9 z m 248,-250 c 38,-38 74,-70 80,-70 6,0 42,32 80,70 77,77 111,89 139,48 27,-38 19,-61 -45,-123 -92,-91 -92,-85 -10,-170 74,-76 85,-103 54,-137 -33,-37 -69,-24 -149,54 l -75,72 -72,-72 c -76,-76 -104,-87 -139,-55 -34,31 -23,62 53,140 l 71,73 -71,75 c -75,80 -87,111 -54,147 31,35 64,23 138,-52 z"
       id="path11"
       style="fill:#d97757;fill-opacity:1" />
    <path
       d="m 1655,1721 c -23,-10 -49,-33 -60,-52 -19,-32 -20,-52 -20,-359 0,-362 -1,-359 68,-400 30,-19 52,-20 357,-20 305,0 327,1 357,20 62,37 63,44 63,409 v 330 l -31,35 c -17,20 -47,40 -67,46 -21,6 -162,10 -332,10 -265,0 -299,-2 -335,-19 z m 639,-203 c 21,-29 20,-57 -1,-80 -15,-17 -37,-18 -291,-18 -303,0 -312,2 -312,61 0,56 16,59 317,59 270,0 272,0 287,-22 z m -4,-330 c 20,-22 26,-54 12,-74 -20,-30 -55,-34 -311,-34 -250,0 -262,1 -282,21 -28,28 -23,79 11,96 18,9 97,13 287,13 257,0 263,0 283,-22 z"
       id="path12"
       style="fill:#d97757;fill-opacity:1" />
  </g>
</svg>
